<svg width="200" height="324" viewBox="0 0 200 324" fill="none" xmlns="http://www.w3.org/2000/svg">
<rect width="200" height="324" fill="#6D6E6E"/>
<rect x="4.5" y="4.5" width="191" height="314" stroke="#D9D9D9"/>
<path d="M34.3661 202V184.545H41.0479C42.3093 184.545 43.3576 184.744 44.1928 185.142C45.0337 185.534 45.6616 186.071 46.0764 186.753C46.4968 187.435 46.707 188.207 46.707 189.071C46.707 189.781 46.5707 190.389 46.2979 190.895C46.0252 191.395 45.6587 191.801 45.1985 192.114C44.7383 192.426 44.2241 192.651 43.6559 192.787V192.957C44.2752 192.991 44.869 193.182 45.4371 193.528C46.011 193.869 46.4798 194.352 46.8434 194.977C47.207 195.602 47.3889 196.358 47.3889 197.244C47.3889 198.148 47.1701 198.96 46.7326 199.682C46.2951 200.398 45.636 200.963 44.7553 201.378C43.8746 201.793 42.7667 202 41.4315 202H34.3661ZM37.5281 199.358H40.9286C42.0763 199.358 42.9031 199.139 43.4087 198.702C43.9201 198.259 44.1758 197.69 44.1758 196.997C44.1758 196.48 44.0479 196.014 43.7923 195.599C43.5366 195.179 43.1729 194.849 42.7013 194.611C42.2298 194.366 41.6673 194.244 41.0138 194.244H37.5281V199.358ZM37.5281 191.969H40.6559C41.2013 191.969 41.6928 191.869 42.1303 191.67C42.5678 191.466 42.9116 191.179 43.1616 190.81C43.4173 190.435 43.5451 189.991 43.5451 189.48C43.5451 188.804 43.3065 188.247 42.8292 187.81C42.3576 187.372 41.6559 187.153 40.7241 187.153H37.5281V191.969ZM55.7134 202.256C54.435 202.256 53.3271 201.974 52.3896 201.412C51.4521 200.849 50.7248 200.062 50.2077 199.051C49.6964 198.04 49.4407 196.858 49.4407 195.506C49.4407 194.153 49.6964 192.969 50.2077 191.952C50.7248 190.935 51.4521 190.145 52.3896 189.582C53.3271 189.02 54.435 188.739 55.7134 188.739C56.9918 188.739 58.0998 189.02 59.0373 189.582C59.9748 190.145 60.6992 190.935 61.2106 191.952C61.7276 192.969 61.9862 194.153 61.9862 195.506C61.9862 196.858 61.7276 198.04 61.2106 199.051C60.6992 200.062 59.9748 200.849 59.0373 201.412C58.0998 201.974 56.9918 202.256 55.7134 202.256ZM55.7305 199.784C56.4237 199.784 57.0032 199.594 57.4691 199.213C57.935 198.827 58.2816 198.31 58.5089 197.662C58.7418 197.014 58.8583 196.293 58.8583 195.497C58.8583 194.696 58.7418 193.972 58.5089 193.324C58.2816 192.67 57.935 192.151 57.4691 191.764C57.0032 191.378 56.4237 191.185 55.7305 191.185C55.0202 191.185 54.4293 191.378 53.9577 191.764C53.4918 192.151 53.1424 192.67 52.9094 193.324C52.6822 193.972 52.5685 194.696 52.5685 195.497C52.5685 196.293 52.6822 197.014 52.9094 197.662C53.1424 198.31 53.4918 198.827 53.9577 199.213C54.4293 199.594 55.0202 199.784 55.7305 199.784ZM70.315 202.256C69.0366 202.256 67.9286 201.974 66.9911 201.412C66.0536 200.849 65.3263 200.062 64.8093 199.051C64.2979 198.04 64.0423 196.858 64.0423 195.506C64.0423 194.153 64.2979 192.969 64.8093 191.952C65.3263 190.935 66.0536 190.145 66.9911 189.582C67.9286 189.02 69.0366 188.739 70.315 188.739C71.5934 188.739 72.7013 189.02 73.6388 189.582C74.5763 190.145 75.3008 190.935 75.8121 191.952C76.3292 192.969 76.5877 194.153 76.5877 195.506C76.5877 196.858 76.3292 198.04 75.8121 199.051C75.3008 200.062 74.5763 200.849 73.6388 201.412C72.7013 201.974 71.5934 202.256 70.315 202.256ZM70.332 199.784C71.0252 199.784 71.6048 199.594 72.0707 199.213C72.5366 198.827 72.8832 198.31 73.1104 197.662C73.3434 197.014 73.4599 196.293 73.4599 195.497C73.4599 194.696 73.3434 193.972 73.1104 193.324C72.8832 192.67 72.5366 192.151 72.0707 191.764C71.6048 191.378 71.0252 191.185 70.332 191.185C69.6218 191.185 69.0309 191.378 68.5593 191.764C68.0934 192.151 67.744 192.67 67.511 193.324C67.2837 193.972 67.1701 194.696 67.1701 195.497C67.1701 196.293 67.2837 197.014 67.511 197.662C67.744 198.31 68.0934 198.827 68.5593 199.213C69.0309 199.594 69.6218 199.784 70.332 199.784ZM82.0188 197.892L82.0103 194.168H82.5046L87.2092 188.909H90.8143L85.0273 195.352H84.3881L82.0188 197.892ZM79.2063 202V184.545H82.2915V202H79.2063ZM87.4222 202L83.1609 196.043L85.2404 193.869L91.1126 202H87.4222ZM113.9 190.435H110.713C110.622 189.912 110.454 189.449 110.21 189.045C109.966 188.636 109.662 188.29 109.298 188.006C108.934 187.722 108.52 187.509 108.054 187.366C107.593 187.219 107.096 187.145 106.562 187.145C105.613 187.145 104.772 187.384 104.039 187.861C103.306 188.332 102.733 189.026 102.318 189.94C101.903 190.849 101.696 191.96 101.696 193.273C101.696 194.608 101.903 195.733 102.318 196.648C102.738 197.557 103.312 198.244 104.039 198.71C104.772 199.17 105.61 199.401 106.554 199.401C107.076 199.401 107.565 199.332 108.02 199.196C108.48 199.054 108.892 198.847 109.255 198.574C109.625 198.301 109.934 197.966 110.184 197.568C110.44 197.17 110.616 196.716 110.713 196.205L113.9 196.222C113.781 197.051 113.522 197.83 113.125 198.557C112.733 199.284 112.218 199.926 111.582 200.483C110.946 201.034 110.201 201.466 109.349 201.778C108.497 202.085 107.551 202.239 106.511 202.239C104.977 202.239 103.608 201.884 102.403 201.173C101.199 200.463 100.25 199.438 99.5565 198.097C98.8633 196.756 98.5167 195.148 98.5167 193.273C98.5167 191.392 98.8661 189.784 99.565 188.449C100.264 187.108 101.216 186.082 102.42 185.372C103.625 184.662 104.988 184.307 106.511 184.307C107.483 184.307 108.386 184.443 109.221 184.716C110.056 184.989 110.801 185.389 111.454 185.918C112.108 186.44 112.645 187.082 113.065 187.844C113.491 188.599 113.77 189.463 113.9 190.435ZM122.37 202.256C121.091 202.256 119.983 201.974 119.046 201.412C118.108 200.849 117.381 200.062 116.864 199.051C116.353 198.04 116.097 196.858 116.097 195.506C116.097 194.153 116.353 192.969 116.864 191.952C117.381 190.935 118.108 190.145 119.046 189.582C119.983 189.02 121.091 188.739 122.37 188.739C123.648 188.739 124.756 189.02 125.694 189.582C126.631 190.145 127.355 190.935 127.867 191.952C128.384 192.969 128.642 194.153 128.642 195.506C128.642 196.858 128.384 198.04 127.867 199.051C127.355 200.062 126.631 200.849 125.694 201.412C124.756 201.974 123.648 202.256 122.37 202.256ZM122.387 199.784C123.08 199.784 123.659 199.594 124.125 199.213C124.591 198.827 124.938 198.31 125.165 197.662C125.398 197.014 125.515 196.293 125.515 195.497C125.515 194.696 125.398 193.972 125.165 193.324C124.938 192.67 124.591 192.151 124.125 191.764C123.659 191.378 123.08 191.185 122.387 191.185C121.676 191.185 121.086 191.378 120.614 191.764C120.148 192.151 119.799 192.67 119.566 193.324C119.338 193.972 119.225 194.696 119.225 195.497C119.225 196.293 119.338 197.014 119.566 197.662C119.799 198.31 120.148 198.827 120.614 199.213C121.086 199.594 121.676 199.784 122.387 199.784ZM142.509 188.909L137.847 202H134.438L129.776 188.909H133.066L136.074 198.634H136.211L139.228 188.909H142.509ZM149.994 202.256C148.681 202.256 147.548 201.983 146.593 201.438C145.645 200.886 144.914 200.108 144.403 199.102C143.892 198.091 143.636 196.901 143.636 195.531C143.636 194.185 143.892 193.003 144.403 191.986C144.92 190.963 145.642 190.168 146.568 189.599C147.494 189.026 148.582 188.739 149.832 188.739C150.639 188.739 151.4 188.869 152.116 189.131C152.838 189.386 153.474 189.784 154.025 190.324C154.582 190.864 155.02 191.551 155.338 192.386C155.656 193.216 155.815 194.205 155.815 195.352V196.298H145.085V194.219H152.858C152.852 193.628 152.724 193.102 152.474 192.642C152.224 192.176 151.875 191.81 151.426 191.543C150.983 191.276 150.466 191.142 149.875 191.142C149.244 191.142 148.69 191.295 148.213 191.602C147.735 191.903 147.363 192.301 147.096 192.795C146.835 193.284 146.701 193.821 146.696 194.406V196.222C146.696 196.983 146.835 197.636 147.113 198.182C147.392 198.722 147.781 199.136 148.281 199.426C148.781 199.71 149.366 199.852 150.037 199.852C150.485 199.852 150.892 199.79 151.255 199.665C151.619 199.534 151.934 199.344 152.201 199.094C152.468 198.844 152.67 198.534 152.806 198.165L155.687 198.489C155.505 199.25 155.159 199.915 154.647 200.483C154.142 201.045 153.494 201.483 152.704 201.795C151.914 202.102 151.011 202.256 149.994 202.256ZM158.425 202V188.909H161.417V191.091H161.553C161.792 190.335 162.201 189.753 162.78 189.344C163.365 188.929 164.033 188.722 164.783 188.722C164.953 188.722 165.144 188.73 165.354 188.747C165.57 188.759 165.749 188.778 165.891 188.807V191.645C165.76 191.599 165.553 191.56 165.269 191.526C164.99 191.486 164.721 191.466 164.459 191.466C163.897 191.466 163.391 191.588 162.942 191.832C162.499 192.071 162.15 192.403 161.894 192.83C161.638 193.256 161.51 193.747 161.51 194.304V202H158.425ZM44.8885 216.545H48.0504V227.949C48.0504 229.199 47.755 230.298 47.1641 231.247C46.5788 232.196 45.755 232.937 44.6925 233.472C43.63 234 42.3885 234.264 40.968 234.264C39.5419 234.264 38.2976 234 37.2351 233.472C36.1726 232.937 35.3487 232.196 34.7635 231.247C34.1783 230.298 33.8857 229.199 33.8857 227.949V216.545H37.0476V227.685C37.0476 228.412 37.2067 229.06 37.5249 229.628C37.8487 230.196 38.3033 230.642 38.8885 230.966C39.4737 231.284 40.1669 231.443 40.968 231.443C41.7692 231.443 42.4624 231.284 43.0476 230.966C43.6385 230.642 44.093 230.196 44.4112 229.628C44.7294 229.06 44.8885 228.412 44.8885 227.685V216.545ZM54.4361 226.33V234H51.3509V220.909H54.2997V223.134H54.4531C54.7543 222.401 55.2344 221.818 55.8935 221.386C56.5582 220.955 57.3793 220.739 58.3565 220.739C59.2599 220.739 60.0469 220.932 60.7173 221.318C61.3935 221.705 61.9162 222.264 62.2855 222.997C62.6605 223.73 62.8452 224.619 62.8395 225.665V234H59.7543V226.142C59.7543 225.267 59.527 224.582 59.0724 224.088C58.6236 223.594 58.0014 223.347 57.206 223.347C56.6662 223.347 56.1861 223.466 55.7656 223.705C55.3509 223.937 55.0241 224.276 54.7855 224.719C54.5526 225.162 54.4361 225.699 54.4361 226.33ZM69.7429 234.264C68.9134 234.264 68.1662 234.116 67.5014 233.821C66.8423 233.52 66.3196 233.077 65.9332 232.491C65.5526 231.906 65.3622 231.185 65.3622 230.327C65.3622 229.588 65.4986 228.977 65.7713 228.494C66.044 228.011 66.4162 227.625 66.8878 227.335C67.3594 227.045 67.8906 226.827 68.4815 226.679C69.0781 226.526 69.6946 226.415 70.331 226.347C71.098 226.267 71.7202 226.196 72.1974 226.134C72.6747 226.065 73.0213 225.963 73.2372 225.827C73.4588 225.685 73.5696 225.466 73.5696 225.17V225.119C73.5696 224.477 73.3793 223.98 72.9986 223.628C72.6179 223.276 72.0696 223.099 71.3537 223.099C70.598 223.099 69.9986 223.264 69.5554 223.594C69.1179 223.923 68.8224 224.312 68.669 224.761L65.7884 224.352C66.0156 223.557 66.3906 222.892 66.9134 222.358C67.4361 221.818 68.0753 221.415 68.831 221.148C69.5866 220.875 70.4219 220.739 71.3366 220.739C71.9673 220.739 72.5952 220.812 73.2202 220.96C73.8452 221.108 74.4162 221.352 74.9332 221.693C75.4503 222.028 75.8651 222.486 76.1776 223.065C76.4957 223.645 76.6548 224.369 76.6548 225.239V234H73.6889V232.202H73.5866C73.3991 232.565 73.1349 232.906 72.794 233.224C72.4588 233.537 72.0355 233.79 71.5241 233.983C71.0185 234.17 70.4247 234.264 69.7429 234.264ZM70.544 231.997C71.1634 231.997 71.7003 231.875 72.1548 231.631C72.6094 231.381 72.9588 231.051 73.2031 230.642C73.4531 230.233 73.5781 229.787 73.5781 229.304V227.761C73.4815 227.841 73.3168 227.915 73.0838 227.983C72.8565 228.051 72.6009 228.111 72.3168 228.162C72.0327 228.213 71.7514 228.259 71.473 228.298C71.1946 228.338 70.9531 228.372 70.7486 228.401C70.2884 228.463 69.8764 228.565 69.5128 228.707C69.1491 228.849 68.8622 229.048 68.652 229.304C68.4418 229.554 68.3366 229.878 68.3366 230.276C68.3366 230.844 68.544 231.273 68.9588 231.562C69.3736 231.852 69.902 231.997 70.544 231.997ZM90.9815 220.909L86.3196 234H82.9105L78.2486 220.909H81.5384L84.5469 230.634H84.6832L87.7003 220.909H90.9815ZM96.5085 234.264C95.679 234.264 94.9318 234.116 94.267 233.821C93.608 233.52 93.0852 233.077 92.6989 232.491C92.3182 231.906 92.1278 231.185 92.1278 230.327C92.1278 229.588 92.2642 228.977 92.5369 228.494C92.8097 228.011 93.1818 227.625 93.6534 227.335C94.125 227.045 94.6563 226.827 95.2472 226.679C95.8438 226.526 96.4602 226.415 97.0966 226.347C97.8636 226.267 98.4858 226.196 98.9631 226.134C99.4403 226.065 99.7869 225.963 100.003 225.827C100.224 225.685 100.335 225.466 100.335 225.17V225.119C100.335 224.477 100.145 223.98 99.7642 223.628C99.3835 223.276 98.8352 223.099 98.1193 223.099C97.3636 223.099 96.7642 223.264 96.321 223.594C95.8835 223.923 95.5881 224.312 95.4347 224.761L92.554 224.352C92.7813 223.557 93.1563 222.892 93.679 222.358C94.2017 221.818 94.8409 221.415 95.5966 221.148C96.3523 220.875 97.1875 220.739 98.1023 220.739C98.733 220.739 99.3608 220.812 99.9858 220.96C100.611 221.108 101.182 221.352 101.699 221.693C102.216 222.028 102.631 222.486 102.943 223.065C103.261 223.645 103.42 224.369 103.42 225.239V234H100.455V232.202H100.352C100.165 232.565 99.9006 232.906 99.5597 233.224C99.2244 233.537 98.8011 233.79 98.2898 233.983C97.7841 234.17 97.1903 234.264 96.5085 234.264ZM97.3097 231.997C97.929 231.997 98.4659 231.875 98.9205 231.631C99.375 231.381 99.7244 231.051 99.9688 230.642C100.219 230.233 100.344 229.787 100.344 229.304V227.761C100.247 227.841 100.082 227.915 99.8494 227.983C99.6222 228.051 99.3665 228.111 99.0824 228.162C98.7983 228.213 98.517 228.259 98.2386 228.298C97.9602 228.338 97.7188 228.372 97.5142 228.401C97.054 228.463 96.642 228.565 96.2784 228.707C95.9148 228.849 95.6278 229.048 95.4176 229.304C95.2074 229.554 95.1023 229.878 95.1023 230.276C95.1023 230.844 95.3097 231.273 95.7244 231.562C96.1392 231.852 96.6676 231.997 97.3097 231.997ZM106.523 234V220.909H109.608V234H106.523ZM108.074 219.051C107.585 219.051 107.165 218.889 106.812 218.565C106.46 218.236 106.284 217.841 106.284 217.381C106.284 216.915 106.46 216.52 106.812 216.196C107.165 215.866 107.585 215.702 108.074 215.702C108.568 215.702 108.989 215.866 109.335 216.196C109.688 216.52 109.864 216.915 109.864 217.381C109.864 217.841 109.688 218.236 109.335 218.565C108.989 218.889 108.568 219.051 108.074 219.051ZM115.866 216.545V234H112.781V216.545H115.866ZM122.805 234.264C121.976 234.264 121.229 234.116 120.564 233.821C119.905 233.52 119.382 233.077 118.996 232.491C118.615 231.906 118.425 231.185 118.425 230.327C118.425 229.588 118.561 228.977 118.834 228.494C119.107 228.011 119.479 227.625 119.95 227.335C120.422 227.045 120.953 226.827 121.544 226.679C122.141 226.526 122.757 226.415 123.393 226.347C124.161 226.267 124.783 226.196 125.26 226.134C125.737 226.065 126.084 225.963 126.3 225.827C126.521 225.685 126.632 225.466 126.632 225.17V225.119C126.632 224.477 126.442 223.98 126.061 223.628C125.68 223.276 125.132 223.099 124.416 223.099C123.661 223.099 123.061 223.264 122.618 223.594C122.18 223.923 121.885 224.312 121.732 224.761L118.851 224.352C119.078 223.557 119.453 222.892 119.976 222.358C120.499 221.818 121.138 221.415 121.893 221.148C122.649 220.875 123.484 220.739 124.399 220.739C125.03 220.739 125.658 220.812 126.283 220.96C126.908 221.108 127.479 221.352 127.996 221.693C128.513 222.028 128.928 222.486 129.24 223.065C129.558 223.645 129.717 224.369 129.717 225.239V234H126.751V232.202H126.649C126.462 232.565 126.197 232.906 125.857 233.224C125.521 233.537 125.098 233.79 124.587 233.983C124.081 234.17 123.487 234.264 122.805 234.264ZM123.607 231.997C124.226 231.997 124.763 231.875 125.217 231.631C125.672 231.381 126.021 231.051 126.266 230.642C126.516 230.233 126.641 229.787 126.641 229.304V227.761C126.544 227.841 126.379 227.915 126.146 227.983C125.919 228.051 125.663 228.111 125.379 228.162C125.095 228.213 124.814 228.259 124.536 228.298C124.257 228.338 124.016 228.372 123.811 228.401C123.351 228.463 122.939 228.565 122.575 228.707C122.212 228.849 121.925 229.048 121.714 229.304C121.504 229.554 121.399 229.878 121.399 230.276C121.399 230.844 121.607 231.273 122.021 231.562C122.436 231.852 122.964 231.997 123.607 231.997ZM132.956 234V216.545H136.041V223.074H136.169C136.328 222.756 136.553 222.418 136.842 222.06C137.132 221.696 137.524 221.386 138.018 221.131C138.513 220.869 139.143 220.739 139.911 220.739C140.922 220.739 141.834 220.997 142.646 221.514C143.464 222.026 144.112 222.784 144.589 223.79C145.072 224.79 145.314 226.017 145.314 227.472C145.314 228.909 145.078 230.131 144.607 231.136C144.135 232.142 143.493 232.909 142.68 233.438C141.868 233.966 140.947 234.23 139.919 234.23C139.169 234.23 138.547 234.105 138.053 233.855C137.558 233.605 137.161 233.304 136.859 232.952C136.564 232.594 136.334 232.256 136.169 231.938H135.99V234H132.956ZM135.982 227.455C135.982 228.301 136.101 229.043 136.339 229.679C136.584 230.315 136.933 230.812 137.388 231.17C137.848 231.523 138.405 231.699 139.058 231.699C139.74 231.699 140.311 231.517 140.771 231.153C141.232 230.784 141.578 230.281 141.811 229.645C142.05 229.003 142.169 228.273 142.169 227.455C142.169 226.642 142.053 225.92 141.82 225.29C141.587 224.659 141.24 224.165 140.78 223.807C140.32 223.449 139.746 223.27 139.058 223.27C138.399 223.27 137.839 223.443 137.379 223.79C136.919 224.136 136.57 224.622 136.331 225.247C136.098 225.872 135.982 226.608 135.982 227.455ZM151.022 216.545V234H147.937V216.545H151.022ZM159.99 234.256C158.678 234.256 157.544 233.983 156.589 233.438C155.641 232.886 154.911 232.108 154.399 231.102C153.888 230.091 153.632 228.901 153.632 227.531C153.632 226.185 153.888 225.003 154.399 223.986C154.916 222.963 155.638 222.168 156.564 221.599C157.49 221.026 158.578 220.739 159.828 220.739C160.635 220.739 161.396 220.869 162.112 221.131C162.834 221.386 163.47 221.784 164.021 222.324C164.578 222.864 165.016 223.551 165.334 224.386C165.652 225.216 165.811 226.205 165.811 227.352V228.298H155.081V226.219H162.854C162.848 225.628 162.72 225.102 162.47 224.642C162.22 224.176 161.871 223.81 161.422 223.543C160.979 223.276 160.462 223.142 159.871 223.142C159.24 223.142 158.686 223.295 158.209 223.602C157.732 223.903 157.359 224.301 157.092 224.795C156.831 225.284 156.697 225.821 156.692 226.406V228.222C156.692 228.983 156.831 229.636 157.109 230.182C157.388 230.722 157.777 231.136 158.277 231.426C158.777 231.71 159.362 231.852 160.033 231.852C160.482 231.852 160.888 231.79 161.251 231.665C161.615 231.534 161.93 231.344 162.197 231.094C162.464 230.844 162.666 230.534 162.803 230.165L165.683 230.489C165.501 231.25 165.155 231.915 164.643 232.483C164.138 233.045 163.49 233.483 162.7 233.795C161.911 234.102 161.007 234.256 159.99 234.256Z" fill="#F9FAFB"/>
<path d="M100 105.375V94.5833M100 116.167H100.031M93.525 132.2L98.0267 138.202C98.6961 139.095 99.0308 139.541 99.4412 139.701C99.8006 139.841 100.199 139.841 100.559 139.701C100.969 139.541 101.304 139.095 101.973 138.202L106.475 132.2C107.379 130.995 107.831 130.392 108.382 129.932C109.117 129.319 109.985 128.885 110.917 128.665C111.615 128.5 112.369 128.5 113.875 128.5C118.185 128.5 120.34 128.5 122.04 127.796C124.306 126.857 126.107 125.056 127.046 122.79C127.75 121.09 127.75 118.935 127.75 114.625V97.05C127.75 91.8695 127.75 89.2793 126.742 87.3006C125.855 85.5601 124.44 84.145 122.699 83.2582C120.721 82.25 118.13 82.25 112.95 82.25H87.05C81.8695 82.25 79.2793 82.25 77.3006 83.2582C75.5601 84.145 74.145 85.5601 73.2582 87.3006C72.25 89.2793 72.25 91.8695 72.25 97.05V114.625C72.25 118.935 72.25 121.09 72.9541 122.79C73.8929 125.056 75.6937 126.857 77.9602 127.796C79.6601 128.5 81.815 128.5 86.125 128.5C87.6314 128.5 88.3847 128.5 89.0835 128.665C90.0152 128.885 90.8829 129.319 91.6179 129.932C92.1692 130.392 92.6211 130.995 93.525 132.2Z" stroke="#F9FAFB" stroke-width="5" stroke-linecap="round" stroke-linejoin="round"/>
</svg>
